<svg width="312" height="406" viewBox="0 0 312 406" fill="none" xmlns="http://www.w3.org/2000/svg">
<circle cx="278" cy="178" r="20" fill="#F4F6FA"/>
<circle cx="171" cy="53" r="53" fill="#F4F6FA"/>
<circle cx="52" cy="158" r="36" fill="#F4F6FA"/>
<path d="M303.616 61.7415C301.408 59.9454 298.818 58.6523 296.038 57.9572C293.258 57.2621 290.358 57.1827 287.551 57.7248C267.016 61.5639 245.864 61.2557 225.399 56.8193C204.933 52.3829 185.586 43.9121 168.55 31.9285C165.364 29.7013 161.564 28.472 157.657 28.4052C153.751 28.3384 149.925 29.4374 146.691 31.5549C129.397 42.9516 109.871 50.7579 89.3148 54.4931C68.759 58.2283 47.6087 57.8134 27.1661 53.2739C24.372 52.636 21.4712 52.6162 18.6768 53.216C15.8824 53.8158 13.2655 55.02 11.0185 56.7399C8.77452 58.4626 6.95799 60.6565 5.70243 63.1605C4.44687 65.6646 3.7842 68.4151 3.7631 71.21L2.22511 210.576C1.91208 237.396 8.17141 263.945 20.4819 288.011C32.7923 312.077 50.7976 332.964 72.9984 348.933L142.447 398.767C145.67 401.078 149.544 402.357 153.53 402.425C157.516 402.493 161.417 401.347 164.689 399.147L235.212 351.705C257.756 336.502 276.216 316.238 289.053 292.602C301.889 268.966 308.732 242.641 309.011 215.82L310.549 76.4541C310.59 73.6596 309.988 70.8875 308.788 68.3414C307.588 65.7954 305.821 63.5402 303.616 61.7415ZM270.663 215.164C270.448 236.018 265.13 256.487 255.154 274.866C245.177 293.246 230.83 309.006 213.306 320.833L153.989 360.795L95.5769 318.821C78.3204 306.399 64.3264 290.155 54.7592 271.441C45.1921 252.727 40.3285 232.085 40.5734 211.231L41.874 93.3784C82.0341 97.4221 122.393 89.0111 157.206 69.3424C191.571 90.1936 231.729 99.981 271.964 97.3115L270.663 215.164ZM185.619 170.864L133.483 220.491L116.604 203.363C113.032 199.779 108.157 197.716 103.051 197.629C97.9451 197.541 93.0263 199.437 89.3768 202.898C85.7274 206.358 83.6463 211.101 83.5913 216.083C83.5363 221.065 85.512 225.877 89.0837 229.461L119.432 259.917C121.195 261.7 123.3 263.128 125.627 264.118C127.953 265.108 130.453 265.639 132.985 265.683C135.516 265.726 138.027 265.28 140.374 264.37C142.721 263.46 144.857 262.105 146.659 260.382L213.322 197.719C216.972 194.258 219.053 189.515 219.108 184.534C219.163 179.552 217.187 174.74 213.615 171.156C210.044 167.571 205.169 165.509 200.062 165.421C194.956 165.334 190.038 167.229 186.388 170.69L185.619 170.864Z" fill="#404246" fill-opacity="0.6"/>
</svg>
